# xmcd
#
# Track frame offsets:
#       150
#       12370
#       24980
#       37318
#       51535
#       67934
#       80489
#       92057
#       104832
#       117775
#       130757
#       143766
#       157550
#       170179
#       182910
#       196945
#       207749
#       219594
#       231927
#       242750
#       252161
#       267014
#       279647
#       291929
#       304827
#
# Disc length: 4222 seconds
#
# Revision: 0
# Processed by: cddbd v1.5.2PL0 Copyright (c) Steve Scherf et al.
# Submitted via: CD-DA_X-Tractor v0.24
#
DISCID=78107c19
DTITLE=Various Artist - R&B Greats Ucons CD 1
DYEAR=2008
DGENRE=R&B
TTITLE0=The Coasters - Searchin
TTITLE1=James Brown - Please Please Please
TTITLE2=Jackie Wilson - Reet Petite
TTITLE3=Muddy Waters - Rollin Stone
TTITLE4=Nina Simone - My Baby Just Cares For Me
TTITLE5=Smiley Lewis - I hear You Knocking
TTITLE6=The Drifters - Fools Fall In Love
TTITLE7=Jimmy Reed - High And Lonesome
TTITLE8=Shirley And Lee - Feel So Good
TTITLE9=The Plstters - I'm Sorry
TTITLE10=Joe Turner - TV Mama
TTITLE11=Nellie Lutcher - He's A Real Gone Guy
TTITLE12=The Five Satins - To The Aisle
TTITLE13=Sam Cooke - You Send Me
TTITLE14=Lonnie Johnson - Tomorrow Night
TTITLE15=The Gladiolas - Little Darlin
TTITLE16=Chuck Willis - It's Too Late
TTITLE17=Earl Bostic - Flamingo
TTITLE18=Bo Diddley - Mona
TTITLE19=The Clovers - Love Love Love
TTITLE20=The Flamingos - Golden Teardrops
TTITLE21=Tiny Bradshaw - The Train Kept A Rollin
TTITLE22=The 5 Royales - Crazy Crazy Crazy
TTITLE23=Ray Charles - I Got A Woman
TTITLE24=Sarah Vaughan and Billy Eckstine - Passing Strangers
EXTD=
EXTT0=
EXTT1=
EXTT2=
EXTT3=
EXTT4=
EXTT5=
EXTT6=
EXTT7=
EXTT8=
EXTT9=
EXTT10=
EXTT11=
EXTT12=
EXTT13=
EXTT14=
EXTT15=
EXTT16=
EXTT17=
EXTT18=
EXTT19=
EXTT20=
EXTT21=
EXTT22=
EXTT23=
EXTT24=
PLAYORDER=
